<?xml version="1.0" standalone="no"?>
<!DOCTYPE svg PUBLIC "-//W3C//DTD SVG 20010904//EN"
 "http://www.w3.org/TR/2001/REC-SVG-20010904/DTD/svg10.dtd">
<svg version="1.0" xmlns="http://www.w3.org/2000/svg"
 width="512.000000pt" height="512.000000pt" viewBox="0 0 512.000000 512.000000"
 preserveAspectRatio="xMidYMid meet">

<g transform="translate(0.000000,512.000000) scale(0.100000,-0.100000)"
fill="#000000" stroke="none">
<path d="M2465 2993 c-47 -6 -159 -51 -208 -84 -212 -140 -278 -426 -150 -654
80 -143 256 -245 423 -245 136 0 249 47 346 144 118 118 169 279 140 443 l-7
41 -42 -27 c-112 -74 -242 -67 -339 18 -90 80 -120 199 -75 309 l25 62 -42 -1
c-22 -1 -54 -4 -71 -6z"/>
</g>
</svg>
